<svg fill="none" height="28" viewBox="0 0 28 28" width="28" xmlns="http://www.w3.org/2000/svg">
    <path
        d="M23.3333 14.3202C23.3333 14.7632 23.0042 15.1293 22.5771 15.1872L22.4583 15.1952L4.95834 15.1952C4.47509 15.1952 4.08334 14.8034 4.08334 14.3202C4.08334 13.8772 4.41252 13.5111 4.83961 13.4532L4.95834 13.4452L22.4583 13.4452C22.9416 13.4452 23.3333 13.8369 23.3333 14.3202Z"
        fill="#212121" />
    <path
        d="M12.6338 20.7285C12.9763 21.0695 12.9775 21.6235 12.6365 21.9659C12.3265 22.2772 11.8405 22.3065 11.4974 22.0531L11.3991 21.9686L4.34073 14.9406C4.02849 14.6297 4.00008 14.1419 4.25553 13.7988L4.34068 13.7006L11.399 6.67138C11.7414 6.33038 12.2954 6.33153 12.6364 6.67395C12.9464 6.98523 12.9737 7.4714 12.7188 7.81342L12.6339 7.91138L6.19851 14.3209L12.6338 20.7285Z"
        fill="#212121" />
</svg>
