<svg width="25" height="25" viewBox="0 0 25 25" fill="none" xmlns="http://www.w3.org/2000/svg">
<g clip-path="url(#clip0_2017_609)">
<path d="M17.273 0.345324C17.222 0.288324 15.3845 0.367824 13.7855 2.10332C12.1865 3.83732 12.4325 5.82632 12.4685 5.87732C12.5045 5.92832 14.7485 6.00782 16.181 3.99032C17.6135 1.97282 17.324 0.403824 17.273 0.345324ZM22.244 17.9448C22.172 17.8008 18.7565 16.0938 19.0745 12.8118C19.3925 9.52832 21.587 8.62832 21.6215 8.53082C21.656 8.43332 20.726 7.34582 19.7405 6.79532C19.0169 6.4072 18.2161 6.18484 17.396 6.14432C17.234 6.13982 16.6715 6.00182 15.515 6.31832C14.753 6.52682 13.0355 7.20182 12.563 7.22882C12.089 7.25582 10.679 6.44582 9.16251 6.23132C8.19201 6.04382 7.16301 6.42782 6.42651 6.72332C5.69151 7.01732 4.29351 7.85432 3.31551 10.0788C2.33751 12.3018 2.84901 15.8238 3.21501 16.9188C3.58101 18.0123 4.15251 19.8048 5.12451 21.1128C5.98851 22.5888 7.13451 23.6133 7.61301 23.9613C8.09151 24.3093 9.44151 24.5403 10.3775 24.0618C11.1305 23.5998 12.4895 23.3343 13.0265 23.3538C13.562 23.3733 14.618 23.5848 15.6995 24.1623C16.556 24.4578 17.366 24.3348 18.1775 24.0048C18.989 23.6733 20.1635 22.4163 21.5345 19.8678C22.055 18.6828 22.292 18.0423 22.244 17.9448Z" fill="black"/>
<path d="M17.273 0.345324C17.222 0.288324 15.3845 0.367824 13.7855 2.10332C12.1865 3.83732 12.4325 5.82632 12.4685 5.87732C12.5045 5.92832 14.7485 6.00782 16.181 3.99032C17.6135 1.97282 17.324 0.403824 17.273 0.345324ZM22.244 17.9448C22.172 17.8008 18.7565 16.0938 19.0745 12.8118C19.3925 9.52832 21.587 8.62832 21.6215 8.53082C21.656 8.43332 20.726 7.34582 19.7405 6.79532C19.0169 6.4072 18.2161 6.18484 17.396 6.14432C17.234 6.13982 16.6715 6.00182 15.515 6.31832C14.753 6.52682 13.0355 7.20182 12.563 7.22882C12.089 7.25582 10.679 6.44582 9.16251 6.23132C8.19201 6.04382 7.16301 6.42782 6.42651 6.72332C5.69151 7.01732 4.29351 7.85432 3.31551 10.0788C2.33751 12.3018 2.84901 15.8238 3.21501 16.9188C3.58101 18.0123 4.15251 19.8048 5.12451 21.1128C5.98851 22.5888 7.13451 23.6133 7.61301 23.9613C8.09151 24.3093 9.44151 24.5403 10.3775 24.0618C11.1305 23.5998 12.4895 23.3343 13.0265 23.3538C13.562 23.3733 14.618 23.5848 15.6995 24.1623C16.556 24.4578 17.366 24.3348 18.1775 24.0048C18.989 23.6733 20.1635 22.4163 21.5345 19.8678C22.055 18.6828 22.292 18.0423 22.244 17.9448Z" fill="black"/>
</g>
<defs>
<clipPath id="clip0_2017_609">
<rect width="24" height="24" fill="white" transform="translate(0.5 0.333313)"/>
</clipPath>
</defs>
</svg>
