<svg fill="none" height="24" viewBox="0 0 25 24" width="25" xmlns="http://www.w3.org/2000/svg">
    <path
        d="M23.125 7.5V5.25C23.125 4.65326 22.8879 4.08097 22.466 3.65901C22.044 3.23705 21.4717 3 20.875 3H17.875V2.25C17.875 2.05109 17.796 1.86032 17.6553 1.71967C17.5147 1.57902 17.3239 1.5 17.125 1.5C16.9261 1.5 16.7353 1.57902 16.5947 1.71967C16.454 1.86032 16.375 2.05109 16.375 2.25V3H8.875V2.25C8.875 2.05109 8.79598 1.86032 8.65533 1.71967C8.51468 1.57902 8.32391 1.5 8.125 1.5C7.92609 1.5 7.73532 1.57902 7.59467 1.71967C7.45402 1.86032 7.375 2.05109 7.375 2.25V3H4.375C3.77826 3 3.20597 3.23705 2.78401 3.65901C2.36205 4.08097 2.125 4.65326 2.125 5.25V7.5H23.125Z"
        fill="url(#paint0_linear_314_4318)" />
    <path
        d="M2.125 9V20.25C2.125 20.8467 2.36205 21.419 2.78401 21.841C3.20597 22.2629 3.77826 22.5 4.375 22.5H20.875C21.4717 22.5 22.044 22.2629 22.466 21.841C22.8879 21.419 23.125 20.8467 23.125 20.25V9H2.125ZM16.8625 13.3193L11.6125 17.8193C11.469 17.9419 11.2845 18.006 11.0958 17.9986C10.9072 17.9913 10.7282 17.913 10.5948 17.7795L8.34475 15.5295C8.20813 15.388 8.13254 15.1986 8.13424 15.0019C8.13595 14.8053 8.21483 14.6172 8.35389 14.4781C8.49294 14.3391 8.68105 14.2602 8.8777 14.2585C9.07435 14.2568 9.2638 14.3324 9.40525 14.469L11.1648 16.2285L15.8898 12.1785C15.9641 12.1115 16.0511 12.06 16.1457 12.0272C16.2403 11.9943 16.3405 11.9807 16.4404 11.9872C16.5403 11.9936 16.6379 12.02 16.7274 12.0648C16.8169 12.1096 16.8966 12.1719 16.9617 12.2479C17.0268 12.324 17.076 12.4123 17.1064 12.5077C17.1368 12.6031 17.1479 12.7036 17.1388 12.8033C17.1298 12.903 17.1009 12.9999 17.0538 13.0882C17.0067 13.1766 16.9425 13.2546 16.8647 13.3177L16.8625 13.3193Z"
        fill="url(#paint1_linear_314_4318)" />
    <defs>
        <linearGradient gradientUnits="userSpaceOnUse" id="paint0_linear_314_4318" x1="-3.80236" x2="20.13"
            y1="6.69931" y2="-13.0082">
            <stop stop-color="#0131B9" />
            <stop offset="1" stop-color="#CC33FF" />
        </linearGradient>
        <linearGradient gradientUnits="userSpaceOnUse" id="paint1_linear_314_4318" x1="-3.80236" x2="31.6145"
            y1="20.6984" y2="7.73641">
            <stop stop-color="#0131B9" />
            <stop offset="1" stop-color="#CC33FF" />
        </linearGradient>
    </defs>
</svg>
