<svg width="16" height="17" viewBox="0 0 16 17" fill="none" xmlns="http://www.w3.org/2000/svg">
<g clip-path="url(#clip0_71_36)">
<path d="M14.0689 13.277C14.0219 13.2465 13.6679 12.9985 13.3134 12.2484C12.6625 10.8708 12.5259 8.93025 12.5259 7.54491C12.5259 7.53888 12.5258 7.53291 12.5256 7.52691C12.5185 5.696 11.4221 4.11769 9.85326 3.40953V2.3265C9.85326 1.34369 9.05501 0.544128 8.07382 0.544128H7.92636C6.94517 0.544128 6.14692 1.34369 6.14692 2.3265V3.40947C4.57279 4.11991 3.47426 5.70628 3.47426 7.54491C3.47426 8.93025 3.33764 10.8708 2.68673 12.2484C2.33232 12.9985 1.97835 13.2465 1.93129 13.277C1.7331 13.3688 1.63539 13.5806 1.68098 13.7953C1.72701 14.0122 1.9297 14.1617 2.15104 14.1617H5.58689C5.60607 15.4786 6.68089 16.5441 8.00011 16.5441C9.31932 16.5441 10.3941 15.4786 10.4133 14.1617H13.8492C14.0705 14.1617 14.2732 14.0122 14.3192 13.7953C14.3648 13.5806 14.2671 13.3687 14.0689 13.277ZM7.08445 2.3265C7.08445 1.86147 7.46214 1.48316 7.92639 1.48316H8.07386C8.53811 1.48316 8.91579 1.86147 8.91579 2.3265V3.10516C8.61992 3.044 8.31364 3.01182 7.99998 3.01182C7.68642 3.01182 7.38023 3.04397 7.08448 3.10507V2.3265H7.08445ZM8.00011 15.6051C7.19782 15.6051 6.54342 14.9608 6.52439 14.1617H9.47579C9.45679 14.9608 8.80239 15.6051 8.00011 15.6051ZM9.88761 13.2226C9.88751 13.2226 3.21932 13.2226 3.21932 13.2226C3.30042 13.0963 3.38295 12.9532 3.46498 12.7914C4.09323 11.5526 4.41179 9.78741 4.41179 7.54491C4.41179 5.56313 6.02145 3.95085 7.99995 3.95085C9.97845 3.95085 11.5881 5.56313 11.5881 7.54647C11.5881 7.55225 11.5882 7.558 11.5884 7.56375C11.5902 9.79725 11.9087 11.5561 12.5352 12.7914C12.6173 12.9532 12.6998 13.0963 12.7809 13.2226H9.88761Z" fill="black"/>
</g>
<defs>
<clipPath id="clip0_71_36">
<rect width="16" height="16" fill="white" transform="translate(0 0.544128)"/>
</clipPath>
</defs>
</svg>
