<svg fill="none" height="60" viewBox="0 0 88 60" width="88" xmlns="http://www.w3.org/2000/svg">
    <rect fill="white" height="59" rx="15.5" width="86" x="1" y="0.5" />
    <rect height="59" rx="15.5" stroke="#EEEEEE" width="86" x="1" y="0.5" />
    <g clip-path="url(#clip0_1_1038)">
        <path
            d="M55.5079 30.2245C55.5079 29.2412 55.4295 28.5237 55.2599 27.7796H44.2295V32.2176H50.7041C50.5736 33.3205 49.8687 34.9814 48.3022 36.0975L48.2803 36.2461L51.7679 38.9963L52.0095 39.0209C54.2286 36.9347 55.5079 33.8653 55.5079 30.2245Z"
            fill="#4285F4" />
        <path
            d="M44.2295 41.9176C47.4015 41.9176 50.0644 40.8545 52.0095 39.0209L48.3022 36.0976C47.3102 36.8018 45.9787 37.2934 44.2295 37.2934C41.1228 37.2934 38.4859 35.2074 37.546 32.324L37.4082 32.3359L33.7818 35.1927L33.7343 35.3269C35.6663 39.2334 39.6346 41.9176 44.2295 41.9176Z"
            fill="#1AB65C" />
        <path
            d="M37.5461 32.324C37.2981 31.5799 37.1546 30.7826 37.1546 29.9588C37.1546 29.1349 37.2981 28.3377 37.5331 27.5936L37.5265 27.4351L33.8546 24.5324L33.7345 24.5906C32.9382 26.2117 32.4814 28.0321 32.4814 29.9588C32.4814 31.8855 32.9382 33.7058 33.7345 35.3269L37.5461 32.324Z"
            fill="#FBBC05" />
        <path
            d="M44.2295 22.624C46.4355 22.624 47.9236 23.594 48.7722 24.4046L52.0878 21.1093C50.0515 19.1826 47.4015 18 44.2295 18C39.6346 18 35.6663 20.6841 33.7343 24.5906L37.5329 27.5936C38.4859 24.7102 41.1228 22.624 44.2295 22.624Z"
            fill="#EB4335" />
    </g>
    <defs>
        <clipPath id="clip0_1_1038">
            <rect fill="white" height="24" transform="translate(32.48 18)" width="23.04" />
        </clipPath>
    </defs>
</svg>
