<svg width="24" height="24" viewBox="0 0 24 24" fill="none" xmlns="http://www.w3.org/2000/svg">
<circle cx="12" cy="12" r="12" fill="#FF427F" fill-opacity="0.8"/>
<g clip-path="url(#clip0_3069_2)">
<path d="M13.3792 10.623C13.2499 10.623 13.145 10.7279 13.145 10.8572V15.2835C13.145 15.4127 13.2499 15.5177 13.3792 15.5177C13.5086 15.5177 13.6134 15.4127 13.6134 15.2835V10.8572C13.6134 10.7279 13.5086 10.623 13.3792 10.623Z" fill="white"/>
<path d="M10.616 10.623C10.4867 10.623 10.3818 10.7279 10.3818 10.8572V15.2835C10.3818 15.4127 10.4867 15.5177 10.616 15.5177C10.7454 15.5177 10.8502 15.4127 10.8502 15.2835V10.8572C10.8502 10.7279 10.7454 10.623 10.616 10.623Z" fill="white"/>
<path d="M8.60167 9.9771V15.7471C8.60167 16.0881 8.72672 16.4084 8.94518 16.6382C9.16263 16.8686 9.46525 16.9995 9.78195 17H14.2129C14.5297 16.9995 14.8323 16.8686 15.0497 16.6382C15.2682 16.4084 15.3932 16.0881 15.3932 15.7471V9.9771C15.8275 9.86183 16.1089 9.4423 16.0508 8.99669C15.9926 8.55118 15.613 8.21792 15.1637 8.21783H13.9646V7.92509C13.966 7.67891 13.8687 7.44252 13.6944 7.26862C13.5201 7.09481 13.2834 6.99802 13.0372 7.00003H10.9577C10.7115 6.99802 10.4747 7.09481 10.3005 7.26862C10.1262 7.44252 10.0289 7.67891 10.0302 7.92509V8.21783H8.83119C8.38184 8.21792 8.00228 8.55118 7.9441 8.99669C7.88601 9.4423 8.1674 9.86183 8.60167 9.9771V9.9771ZM14.2129 16.5316H9.78195C9.38154 16.5316 9.07005 16.1876 9.07005 15.7471V9.99768H14.9248V15.7471C14.9248 16.1876 14.6133 16.5316 14.2129 16.5316ZM10.4986 7.92509C10.4971 7.80314 10.545 7.68577 10.6315 7.59969C10.718 7.51361 10.8356 7.46631 10.9577 7.46841H13.0372C13.1592 7.46631 13.2769 7.51361 13.3633 7.59969C13.4499 7.68568 13.4978 7.80314 13.4963 7.92509V8.21783H10.4986V7.92509ZM8.83119 8.68621H15.1637C15.3965 8.68621 15.5852 8.87493 15.5852 9.10775C15.5852 9.34057 15.3965 9.5293 15.1637 9.5293H8.83119C8.59837 9.5293 8.40965 9.34057 8.40965 9.10775C8.40965 8.87493 8.59837 8.68621 8.83119 8.68621V8.68621Z" fill="white"/>
<path d="M11.9979 10.623C11.8685 10.623 11.7637 10.7279 11.7637 10.8572V15.2835C11.7637 15.4127 11.8685 15.5177 11.9979 15.5177C12.1272 15.5177 12.2321 15.4127 12.2321 15.2835V10.8572C12.2321 10.7279 12.1272 10.623 11.9979 10.623Z" fill="white"/>
</g>
<defs>
<clipPath id="clip0_3069_2">
<rect width="10" height="10" fill="white" transform="translate(7 7)"/>
</clipPath>
</defs>
</svg>
