<svg width="16" height="15" viewBox="0 0 16 15" fill="none" xmlns="http://www.w3.org/2000/svg">
<path d="M14.9547 2.13578L13.177 0.298691C12.7821 -0.10941 12.1398 -0.109118 11.7452 0.299277L2.24111 10.1356C1.94412 10.4425 1.71732 10.8225 1.58525 11.2346L1.57678 11.2611L0.750488 14.9928L4.36112 14.1396L4.38661 14.1309C4.78528 13.9945 5.15295 13.7603 5.45028 13.4531L14.9553 3.61583C15.1464 3.41806 15.2515 3.15519 15.2514 2.87566C15.2513 2.59618 15.1459 2.3334 14.9547 2.13578ZM2.25745 13.4348L2.59493 11.9106L3.73257 13.0863L2.25745 13.4348ZM4.76879 12.501L3.16174 10.8402L11.0178 2.70959L12.6248 4.37036L4.76879 12.501ZM13.4255 3.54167L11.8185 1.88091L12.4615 1.21545L14.0685 2.87621L13.4255 3.54167Z" fill="black"/>
</svg>
