<svg width="18" height="18" viewBox="0 0 18 18" fill="none" xmlns="http://www.w3.org/2000/svg">
<g clip-path="url(#clip0_71_9)">
<path d="M17.6858 13.5548C17.6926 13.5535 17.6992 13.5517 17.7059 13.5499C17.7115 13.5485 17.7173 13.5473 17.7228 13.5456C17.7293 13.5436 17.7357 13.5412 17.742 13.5389C17.7477 13.5368 17.7533 13.535 17.7589 13.5327C17.7649 13.5302 17.7707 13.5273 17.7765 13.5245C17.7822 13.5218 17.7879 13.5193 17.7935 13.5163C17.7991 13.5133 17.8043 13.5099 17.8097 13.5067C17.8153 13.5034 17.8209 13.5002 17.8263 13.4966C17.8321 13.4927 17.8375 13.4885 17.8431 13.4843C17.8477 13.4808 17.8525 13.4775 17.8571 13.4738C17.8655 13.4669 17.8736 13.4595 17.8814 13.4519C17.8828 13.4505 17.8843 13.4494 17.8857 13.448C17.8871 13.4465 17.8884 13.4449 17.8898 13.4434C17.8973 13.4357 17.9046 13.4278 17.9114 13.4195C17.9155 13.4146 17.9189 13.4095 17.9227 13.4044C17.9265 13.3992 17.9306 13.3942 17.9342 13.3888C17.938 13.383 17.9414 13.377 17.945 13.3711C17.9479 13.3661 17.9511 13.3612 17.9539 13.356C17.9571 13.35 17.9598 13.3438 17.9627 13.3377C17.9652 13.3323 17.9679 13.327 17.9703 13.3214C17.9728 13.3154 17.9747 13.3093 17.9769 13.3032C17.9791 13.2973 17.9813 13.2914 17.9832 13.2854C17.985 13.2792 17.9864 13.273 17.988 13.2668C17.9895 13.2606 17.9912 13.2546 17.9924 13.2484C17.9939 13.241 17.9948 13.2337 17.9958 13.2263C17.9965 13.2211 17.9975 13.2159 17.9981 13.2106C17.9994 13.1977 18 13.1847 18 13.1717V4.82798C18 4.61235 17.8253 4.43762 17.6097 4.43762H5.31331C5.30988 4.43762 5.30655 4.43804 5.30311 4.43814C5.29567 4.43835 5.28828 4.43866 5.28089 4.43929C5.27501 4.43976 5.26918 4.44043 5.26335 4.44121C5.25668 4.44205 5.25007 4.44304 5.24346 4.44423C5.23727 4.44533 5.23113 4.44663 5.22504 4.44803C5.21885 4.44949 5.21265 4.45105 5.20651 4.45282C5.20042 4.45454 5.19444 4.45641 5.1885 4.45839C5.18241 4.46047 5.17632 4.46266 5.17034 4.46505C5.16466 4.46729 5.15909 4.46958 5.15358 4.47208C5.14744 4.47484 5.14135 4.4778 5.13531 4.48087C5.13016 4.48353 5.12511 4.48623 5.12011 4.4891C5.11407 4.49253 5.10814 4.49618 5.10226 4.49992C5.09742 4.50305 5.09268 4.50627 5.088 4.50955C5.08248 4.51346 5.07701 4.51752 5.07165 4.52178C5.06676 4.52569 5.06197 4.5297 5.05724 4.53381C5.05255 4.53792 5.04792 4.54203 5.04339 4.5464C5.03824 4.55135 5.03329 4.5565 5.0284 4.5617C5.02596 4.56431 5.02335 4.5666 5.02101 4.56925C5.01961 4.57081 5.01851 4.57253 5.01716 4.57409C5.01227 4.57977 5.00769 4.5857 5.00311 4.59168C4.99978 4.59606 4.99634 4.60043 4.99322 4.6049C4.98916 4.61073 4.98541 4.61672 4.98166 4.62276C4.97859 4.6277 4.97542 4.63259 4.97261 4.63764C4.96933 4.64347 4.96646 4.64946 4.9635 4.65544C4.96079 4.66091 4.95798 4.66637 4.95553 4.67194C4.95298 4.67782 4.95075 4.68391 4.94851 4.6899C4.94627 4.69578 4.94398 4.70161 4.94205 4.70754C4.94013 4.71353 4.93857 4.71962 4.9369 4.72571C4.93524 4.73195 4.93347 4.73815 4.93206 4.74445C4.93076 4.75033 4.92987 4.75631 4.92883 4.76225C4.92769 4.76901 4.92654 4.77578 4.92571 4.78254C4.92503 4.78817 4.92472 4.79389 4.92431 4.79962C4.92379 4.8069 4.92332 4.81419 4.92321 4.82153C4.92316 4.82366 4.9229 4.82574 4.9229 4.82788V7.23521C4.9229 7.45084 5.09763 7.62557 5.31326 7.62557C5.5289 7.62557 5.70362 7.45084 5.70362 7.23521V5.69484L9.17424 8.76761C9.15613 8.78036 9.13869 8.79447 9.12245 8.81065L5.70357 12.2295V9.66419C5.70357 9.44855 5.52884 9.27383 5.31321 9.27383C5.09757 9.27383 4.92285 9.44855 4.92285 9.66419V10.1412H2.90599C2.69035 10.1412 2.51562 10.3159 2.51562 10.5315C2.51562 10.7472 2.69035 10.9219 2.90599 10.9219H4.92285V13.172C4.92285 13.3876 5.09757 13.5623 5.31321 13.5623H17.6096C17.6224 13.5623 17.6353 13.5617 17.6481 13.5604C17.6541 13.5598 17.6598 13.5587 17.6657 13.5579C17.6725 13.5569 17.6792 13.5561 17.6858 13.5548ZM17.2193 12.2296L13.8003 8.81071C13.7981 8.80852 13.7958 8.8067 13.7936 8.80462L16.3638 6.62396C16.5282 6.48447 16.5484 6.23817 16.4089 6.07375C16.2695 5.90944 16.0232 5.88914 15.8587 6.02868L11.4669 9.75481L6.34303 5.2184H17.2193V12.2296ZM9.67458 9.36283C9.70242 9.33499 9.72501 9.30397 9.74266 9.27097L11.2027 10.5636C11.2765 10.6289 11.3689 10.6617 11.4614 10.6617C11.5513 10.6617 11.6411 10.6308 11.714 10.569L13.2019 9.30662C13.2155 9.3264 13.2307 9.34529 13.2483 9.36283L16.6671 12.7817H6.2557L9.67458 9.36283Z" fill="black"/>
<path d="M0.390361 8.88338H6.98314C7.19877 8.88338 7.3735 8.70865 7.3735 8.49302C7.3735 8.27739 7.19877 8.10266 6.98314 8.10266H0.390361C0.174725 8.10266 0 8.27739 0 8.49302C0 8.70865 0.174725 8.88338 0.390361 8.88338Z" fill="black"/>
<path d="M1.07347 6.7322H4.0337C4.24934 6.7322 4.42406 6.55748 4.42406 6.34184C4.42406 6.1262 4.24934 5.95148 4.0337 5.95148H1.07347C0.857831 5.95148 0.683105 6.1262 0.683105 6.34184C0.683105 6.55748 0.857831 6.7322 1.07347 6.7322Z" fill="black"/>
<path d="M3.253 11.7894H0.39036C0.174725 11.7894 0 11.9642 0 12.1798C0 12.3954 0.174725 12.5702 0.39036 12.5702H3.253C3.46864 12.5702 3.64336 12.3954 3.64336 12.1798C3.64336 11.9642 3.46864 11.7894 3.253 11.7894Z" fill="black"/>
</g>
<defs>
<clipPath id="clip0_71_9">
<rect width="18" height="18" fill="white"/>
</clipPath>
</defs>
</svg>
