<svg fill="none" height="20" viewBox="0 0 20 20" width="20" xmlns="http://www.w3.org/2000/svg">
    <path
        d="M9.99999 12.7273C11.5062 12.7273 12.7273 11.5062 12.7273 9.99998C12.7273 8.49375 11.5062 7.27271 9.99999 7.27271C8.49376 7.27271 7.27272 8.49375 7.27272 9.99998C7.27272 11.5062 8.49376 12.7273 9.99999 12.7273Z"
        fill="#9E9E9E" />
    <path
        d="M17.9308 9.28181C15.9944 6.8685 13.0631 4.54547 10 4.54547C6.93636 4.54547 4.0044 6.87012 2.06923 9.28181C1.73449 9.6988 1.73449 10.3042 2.06923 10.7212C2.55576 11.3275 3.57572 12.4979 4.93799 13.5206C8.36881 16.0964 11.6237 16.1021 15.0621 13.5206C16.4243 12.4979 17.4443 11.3275 17.9308 10.7212C18.2646 10.305 18.2663 9.70017 17.9308 9.28181ZM10 6.36414C11.9449 6.36414 13.5269 7.99575 13.5269 10.0015C13.5269 12.0072 11.9449 13.6388 10 13.6388C8.0552 13.6388 6.47313 12.0072 6.47313 10.0015C6.47313 7.99575 8.0552 6.36414 10 6.36414Z"
        fill="#9E9E9E" />
</svg>
