<svg fill="none" height="20" viewBox="0 0 20 20" width="20" xmlns="http://www.w3.org/2000/svg">
    <path clip-rule="evenodd"
        d="M8.16938 12.7105C8.68978 13.0633 9.32401 13.2766 9.99889 13.2766C11.7877 13.2766 13.2432 11.808 13.2432 10.0031C13.2432 9.32215 13.0318 8.68221 12.6822 8.15714L11.7959 9.05141C11.9422 9.33035 12.0235 9.65852 12.0235 10.0031C12.0235 11.1271 11.1129 12.046 9.99889 12.046C9.65738 12.046 9.33214 11.9639 9.05568 11.8162L8.16938 12.7105ZM15.3573 5.45795C16.5363 6.54091 17.5365 8.00126 18.2845 9.75697C18.3496 9.91285 18.3496 10.0933 18.2845 10.241C16.5445 14.3267 13.4465 16.7716 9.99889 16.7716H9.99076C8.42145 16.7716 6.91719 16.2547 5.59181 15.3112L4.01436 16.9029C3.8924 17.0259 3.73791 17.0834 3.58341 17.0834C3.42892 17.0834 3.2663 17.0259 3.15246 16.9029C2.94918 16.6978 2.91666 16.3696 3.07928 16.1317L3.10368 16.0988L15.1296 3.96478C15.1459 3.94837 15.1622 3.93196 15.1703 3.91555L15.1703 3.91555C15.1866 3.89914 15.2028 3.88273 15.211 3.86633L15.9753 3.09513C16.2192 2.85721 16.6014 2.85721 16.8372 3.09513C17.0811 3.33305 17.0811 3.72686 16.8372 3.96478L15.3573 5.45795ZM6.74863 10.0063C6.74863 10.2196 6.77302 10.4329 6.80554 10.6298L3.79702 13.6654C2.9839 12.7137 2.27649 11.5651 1.71544 10.2442C1.65039 10.0965 1.65039 9.91605 1.71544 9.76017C3.45551 5.67446 6.55348 3.2378 9.99296 3.2378H10.0011C11.1638 3.2378 12.2941 3.51674 13.3349 4.04182L10.6191 6.78203C10.4239 6.74921 10.2125 6.7246 10.0011 6.7246C8.2041 6.7246 6.74863 8.19316 6.74863 10.0063Z"
        fill="#9E9E9E" fill-rule="evenodd" />
</svg>
