<svg fill="none" height="20" viewBox="0 0 20 20" width="20" xmlns="http://www.w3.org/2000/svg">
    <path d="M8.60845 13.8274H3.35785" stroke="url(#paint0_linear_102_4195)" stroke-linecap="round"
        stroke-linejoin="round" stroke-width="1.5" />
    <path d="M10.9504 5.75035H16.201" stroke="url(#paint1_linear_102_4195)" stroke-linecap="round"
        stroke-linejoin="round" stroke-width="1.5" />
    <path clip-rule="evenodd" d="M7.27189 5.70521C7.27189 4.6255 6.39009 3.75 5.3026 3.75C4.21511 3.75 3.33331 4.6255 3.33331 5.70521C3.33331 6.78492 4.21511 7.66042 5.3026 7.66042C6.39009 7.66042 7.27189 6.78492 7.27189 5.70521Z"
        fill-rule="evenodd"
        stroke="url(#paint2_linear_102_4195)" stroke-linecap="round" stroke-linejoin="round"
        stroke-width="1.5" />
    <path clip-rule="evenodd" d="M16.6667 13.7948C16.6667 12.7151 15.7855 11.8396 14.6981 11.8396C13.6099 11.8396 12.7281 12.7151 12.7281 13.7948C12.7281 14.8745 13.6099 15.75 14.6981 15.75C15.7855 15.75 16.6667 14.8745 16.6667 13.7948Z"
        fill-rule="evenodd"
        stroke="url(#paint3_linear_102_4195)" stroke-linecap="round" stroke-linejoin="round"
        stroke-width="1.5" />
    <defs>
        <linearGradient gradientUnits="userSpaceOnUse" id="paint0_linear_102_4195" x1="1.87584" x2="4.25797"
            y1="14.0799" y2="9.80846">
            <stop stop-color="#0131B9" />
            <stop offset="1" stop-color="#CC33FF" />
        </linearGradient>
        <linearGradient gradientUnits="userSpaceOnUse" id="paint1_linear_102_4195" x1="9.46837" x2="11.8505"
            y1="6.00288" y2="1.73143">
            <stop stop-color="#0131B9" />
            <stop offset="1" stop-color="#CC33FF" />
        </linearGradient>
        <linearGradient gradientUnits="userSpaceOnUse" id="paint2_linear_102_4195" x1="2.22163" x2="9.35335"
            y1="7.13858" y2="5.44858">
            <stop stop-color="#0131B9" />
            <stop offset="1" stop-color="#CC33FF" />
        </linearGradient>
        <linearGradient gradientUnits="userSpaceOnUse" id="paint3_linear_102_4195" x1="11.6164" x2="18.7481"
            y1="15.2282" y2="13.5382">
            <stop stop-color="#0131B9" />
            <stop offset="1" stop-color="#CC33FF" />
        </linearGradient>
    </defs>
</svg>
