<svg width="24" height="25" viewBox="0 0 24 25" fill="none" xmlns="http://www.w3.org/2000/svg">
<g clip-path="url(#clip0_2017_582)">
<path d="M23.5078 12.5578C23.5078 11.5746 23.4295 10.857 23.2598 10.1129H12.2295V14.5509H18.7041C18.5736 15.6538 17.8687 17.3148 16.3022 18.4309L16.2802 18.5794L19.7678 21.3296L20.0095 21.3542C22.2285 19.268 23.5078 16.1986 23.5078 12.5578Z" fill="#4285F4"/>
<path d="M12.2294 24.2509C15.4014 24.2509 18.0643 23.1878 20.0094 21.3542L16.3021 18.4309C15.3101 19.1351 13.9786 19.6268 12.2294 19.6268C9.12268 19.6268 6.48586 17.5407 5.5459 14.6573L5.40813 14.6692L1.78168 17.526L1.73425 17.6602C3.66618 21.5667 7.6345 24.2509 12.2294 24.2509Z" fill="#34A853"/>
<path d="M5.54609 14.6573C5.29808 13.9132 5.15454 13.1159 5.15454 12.2921C5.15454 11.4682 5.29808 10.671 5.53304 9.92688L5.52647 9.76841L1.85458 6.86569L1.73444 6.92386C0.938206 8.54496 0.481323 10.3654 0.481323 12.2921C0.481323 14.2188 0.938206 16.0391 1.73444 17.6602L5.54609 14.6573Z" fill="#FBBC05"/>
<path d="M12.2294 4.95736C14.4355 4.95736 15.9235 5.92734 16.7721 6.73794L20.0877 3.44261C18.0514 1.51592 15.4014 0.333328 12.2294 0.333328C7.63449 0.333328 3.66617 3.01739 1.73425 6.92389L5.53285 9.92692C6.48585 7.04353 9.12267 4.95736 12.2294 4.95736Z" fill="#EB4335"/>
</g>
<defs>
<clipPath id="clip0_2017_582">
<rect width="23.04" height="24" fill="white" transform="translate(0.47998 0.333313)"/>
</clipPath>
</defs>
</svg>
