<svg width="15" height="14" viewBox="0 0 15 14" fill="none" xmlns="http://www.w3.org/2000/svg">
<path d="M14.2649 6.25851L13.0822 5.18086V1.6075C13.0822 1.38014 12.8978 1.19579 12.6704 1.19579H9.82356C9.59619 1.19579 9.41184 1.38011 9.41184 1.6075V1.83648L7.98351 0.534997C7.70781 0.283735 7.29204 0.283763 7.01645 0.53497L0.735097 6.25854C0.514269 6.45979 0.441289 6.76986 0.549187 7.04847C0.657113 7.32707 0.919886 7.50708 1.21867 7.50708H2.22189V13.2416C2.22189 13.469 2.40621 13.6534 2.6336 13.6534H6.07653C6.3039 13.6534 6.48825 13.469 6.48825 13.2416V9.75979H8.51171V13.2417C8.51171 13.469 8.69604 13.6534 8.92343 13.6534H12.3662C12.5936 13.6534 12.7779 13.4691 12.7779 13.2417V7.50711H13.7813C14.0801 7.50711 14.3429 7.32708 14.4508 7.0485C14.5587 6.76986 14.4857 6.45979 14.2649 6.25851ZM12.3662 6.68368C12.1389 6.68368 11.9545 6.868 11.9545 7.09539V12.83H9.33517V9.34808C9.33517 9.12072 9.15082 8.93636 8.92345 8.93636H6.07653C5.84917 8.93636 5.66482 9.12069 5.66482 9.34808V12.83H3.04529V7.09539C3.04529 6.86803 2.86096 6.68368 2.63357 6.68368H1.49107L7.50002 1.20836L9.54632 3.07296C9.66685 3.18277 9.84084 3.21108 9.98994 3.14526C10.1391 3.07936 10.2353 2.93165 10.2353 2.76863V2.01922H12.2588V5.3627C12.2588 5.47856 12.3076 5.589 12.3932 5.66704L13.5089 6.68368H12.3662Z" fill="white"/>
</svg>
