<svg width="16" height="15" viewBox="0 0 16 15" fill="none" xmlns="http://www.w3.org/2000/svg">
<path d="M15.1174 6.23554L13.8731 5.10176V1.34225C13.8731 1.10305 13.6792 0.909091 13.4399 0.909091H10.4447C10.2055 0.909091 10.0116 1.10302 10.0116 1.34225V1.58316L8.50884 0.213881C8.21877 -0.0504698 7.78135 -0.050441 7.4914 0.213852L0.882842 6.23557C0.650511 6.4473 0.573729 6.77353 0.687248 7.06665C0.800795 7.35977 1.07726 7.54915 1.39161 7.54915H2.44708V13.5824C2.44708 13.8216 2.64101 14.0156 2.88024 14.0156H6.50252C6.74173 14.0156 6.93568 13.8217 6.93568 13.5824V9.91921H9.06455V13.5825C9.06455 13.8217 9.25848 14.0156 9.49772 14.0156H13.1199C13.3591 14.0156 13.553 13.8217 13.553 13.5825V7.54918H14.6087C14.923 7.54918 15.1995 7.35977 15.313 7.06668C15.4265 6.77353 15.3498 6.4473 15.1174 6.23554ZM13.1199 6.68286C12.8806 6.68286 12.6867 6.87678 12.6867 7.11602V13.1493H9.93091V9.48605C9.93091 9.24685 9.73695 9.05289 9.49775 9.05289H6.50252C6.26332 9.05289 6.06936 9.24682 6.06936 9.48605V13.1493H3.31337V7.11602C3.31337 6.87681 3.11945 6.68286 2.88021 6.68286H1.67819L8.00016 0.922325L10.1531 2.88405C10.2799 2.99959 10.4629 3.02936 10.6198 2.96012C10.7767 2.89078 10.8779 2.73538 10.8779 2.56386V1.77542H13.0068V5.29307C13.0068 5.41496 13.0581 5.53115 13.1482 5.61326L14.3221 6.68286H13.1199Z" fill="#676767"/>
</svg>
