<svg width="15" height="14" viewBox="0 0 15 14" fill="none" xmlns="http://www.w3.org/2000/svg">
<path d="M7.24994 0C3.39018 0 0.25 3.14018 0.25 6.99994C0.25 10.8598 3.39011 14 7.24987 14C11.1097 14 14.2498 10.8598 14.2498 6.99994C14.2499 3.14018 11.1098 0 7.24994 0ZM7.24994 13.0418C3.91856 13.0418 1.20831 10.3314 1.20831 6.99994C1.20825 3.66856 3.91856 0.958248 7.24994 0.958248C10.5813 0.958248 13.2916 3.66856 13.2916 6.99994C13.2916 10.3314 10.5813 13.0418 7.24994 13.0418Z" fill="#676767"/>
<path d="M10.8611 6.90657H7.53588V3.27405C7.53588 3.00944 7.32143 2.79492 7.05676 2.79492C6.79216 2.79492 6.57764 3.00944 6.57764 3.27405V7.3857C6.57764 7.6503 6.79216 7.86482 7.05676 7.86482H10.8611C11.1257 7.86482 11.3402 7.6503 11.3402 7.3857C11.3402 7.12109 11.1257 6.90657 10.8611 6.90657Z" fill="#676767"/>
</svg>
