<svg width="16" height="17" viewBox="0 0 16 17" fill="none" xmlns="http://www.w3.org/2000/svg">
<g clip-path="url(#clip0_71_30)">
<path d="M2.67262 15.8734C2.1797 15.8734 1.6868 15.6858 1.31155 15.3105L0 13.999L7.69411 6.30487C7.46042 5.61528 7.4072 4.8787 7.54099 4.15576C7.69831 3.30583 8.10561 2.53243 8.71891 1.91917C10.3824 0.255671 13.089 0.255734 14.7524 1.91917C16.4159 3.58261 16.4159 6.28926 14.7524 7.95269C14.1392 8.56599 13.3658 8.97329 12.5159 9.13061C11.7929 9.26443 11.0564 9.21118 10.3668 8.9775L8.53032 10.814L7.23925 11.0607L6.98952 12.3547L5.25401 14.0903L4.293 14.1971L4.14349 15.2008L4.03372 15.3105C3.65844 15.6858 3.16555 15.8734 2.67262 15.8734ZM1.33062 13.999L1.97684 14.6452C2.32653 14.9949 2.87601 15.0259 3.26111 14.7381L3.46904 13.3419L4.82202 13.1916L6.1203 11.8933L6.43625 10.2562L8.06955 9.94406L10.1412 7.87241L10.4333 7.9966C10.8568 8.17659 11.3008 8.26415 11.74 8.26419C12.6029 8.26425 13.4481 7.92641 14.0871 7.28737C15.3837 5.99075 15.3837 3.88105 14.0871 2.58443C12.7905 1.28791 10.6808 1.28784 9.3842 2.58443C8.41987 3.5488 8.14146 4.98298 8.675 6.2382L8.7992 6.53037L1.33062 13.999Z" fill="black"/>
<path d="M12.155 6.07628C11.738 6.07628 11.3459 5.91389 11.051 5.61898C10.7562 5.32411 10.5938 4.93205 10.5938 4.51502C10.5938 4.098 10.7562 3.70593 11.051 3.41106C11.3459 3.11619 11.738 2.9538 12.155 2.9538C12.572 2.9538 12.9641 3.11619 13.259 3.41109C13.5538 3.70596 13.7162 4.09803 13.7162 4.51506C13.7162 4.93208 13.5538 5.32415 13.2589 5.61905C12.9641 5.91389 12.572 6.07628 12.155 6.07628ZM12.155 3.89467C11.9893 3.89467 11.8335 3.95919 11.7164 4.07636C11.5992 4.19353 11.5346 4.34934 11.5346 4.51502C11.5346 4.68074 11.5992 4.83652 11.7163 4.95369C11.8335 5.07086 11.9893 5.13541 12.155 5.13541C12.3207 5.13541 12.4765 5.07086 12.5936 4.95372C12.7108 4.83655 12.7754 4.68077 12.7754 4.51506C12.7754 4.34937 12.7108 4.19359 12.5936 4.07642C12.4765 3.95919 12.3207 3.89467 12.155 3.89467Z" fill="black"/>
</g>
<defs>
<clipPath id="clip0_71_30">
<rect width="16" height="16" fill="white" transform="translate(0 0.272156)"/>
</clipPath>
</defs>
</svg>
