<svg width="180" height="52" viewBox="0 0 180 52" fill="none" xmlns="http://www.w3.org/2000/svg">
<path d="M105.56 27.0237L94.7296 51.3614H91.3496L80.5708 27.0237H83.996L93.1105 47.7556L102.322 27.0237H105.56Z" fill="#606060"/>
<path d="M129.807 27.0237V51.3614H126.66V46.917C124.95 49.8778 121.802 51.5936 117.913 51.5936C111.714 51.5936 107.637 48.1233 107.637 41.1374V27.0237H110.92V40.8149C110.92 45.9946 113.604 48.6328 118.229 48.6328C123.318 48.6328 126.511 45.3495 126.511 39.7957V27.0237H129.795H129.807Z" fill="#606060"/>
<path d="M154.558 45.485L156.409 47.6137C154.235 50.2068 150.901 51.5936 147.062 51.5936C139.477 51.5936 134.245 46.4139 134.245 39.1958C134.245 31.9777 139.29 26.8431 146.276 26.8431C152.797 26.8431 157.706 31.61 157.938 38.4604L137.948 42.3501C139.148 46.2849 142.573 48.6909 147.108 48.6909C150.114 48.6909 152.752 47.6266 154.558 45.4979V45.485ZM137.438 38.9571C137.438 39.3248 137.438 39.6538 137.483 39.9763L154.648 36.6478C153.952 32.6679 150.759 29.662 146.276 29.662C141.096 29.662 137.438 33.4548 137.438 38.9636V38.9571Z" fill="#606060"/>
<path d="M76.5521 45.8914L78.4034 48.02C76.2296 50.6131 72.8947 52 69.0566 52C61.4708 52 56.2395 46.8202 56.2395 39.6022C56.2395 32.3841 61.2838 27.2495 68.2697 27.2495C74.7911 27.2495 79.6999 32.0164 79.9321 38.8668L59.9421 42.7564C61.1419 46.6912 64.5671 49.0973 69.1018 49.0973C72.1077 49.0973 74.7459 48.0329 76.5521 45.9043V45.8914ZM59.4325 39.3635C59.4325 39.7312 59.4325 40.0601 59.4776 40.3827L76.6424 37.0542C75.9457 33.0743 72.7527 30.0683 68.2697 30.0683C63.0899 30.0683 59.4325 33.8612 59.4325 39.3699V39.3635Z" fill="#606060"/>
<path d="M174.593 26.8367V30.0297C174.316 30.0297 174.038 29.9845 173.806 29.9845C168.717 29.9845 165.614 33.2226 165.614 38.9636V51.3679H162.331V27.0302H165.479V31.7971C167.007 28.5589 170.104 26.8431 174.593 26.8431V26.8367Z" fill="#606060"/>
<path d="M39.8102 17.5673C37.2364 18.0575 34.6498 18.4704 32.1018 19.0445C27.4059 20.0959 22.7744 21.4053 18.401 23.4566C17.0722 24.0758 15.7757 24.8499 14.6339 25.7659C13.0729 27.0108 12.9955 28.6234 14.621 29.7781C16.3756 31.023 18.3236 32.1067 20.3426 32.8614C24.5999 34.4611 28.9604 35.7835 33.2565 37.2735C35.7077 38.125 37.617 39.5957 38.4427 42.1953C39.5457 45.6656 37.6622 49.4198 34.2047 50.6002C20.1426 55.3865 4.3712 46.5042 0.913736 32.0744C-2.56308 17.5415 6.94494 3.13757 21.4069 0.441265C35.3593 -2.16473 48.9376 7.04011 51.6017 20.9732C51.8984 22.5277 51.9371 24.1339 52.1048 25.7143C52.1822 26.4819 51.8339 26.7786 51.0792 26.7657C45.2673 26.7141 39.4489 26.6883 33.6371 26.6109C32.9146 26.598 32.1728 26.3787 31.489 26.1142C30.4505 25.7078 30.1602 24.8628 30.844 23.9791C31.489 23.147 32.276 22.3536 33.1597 21.7859C35.3271 20.3862 37.5847 19.1283 39.8037 17.8124C39.8037 17.7286 39.8037 17.6512 39.8037 17.5673H39.8102Z" fill="url(#paint0_linear_214_4308)"/>
<path d="M179.805 28.6234C179.805 29.5652 179.07 30.3006 178.128 30.3006C177.186 30.3006 176.464 29.5652 176.464 28.6299C176.464 27.6946 177.186 26.9592 178.141 26.9592C179.096 26.9592 179.805 27.6752 179.805 28.6234ZM179.624 28.6234C179.624 27.7784 178.992 27.1398 178.141 27.1398C177.289 27.1398 176.638 27.7978 176.638 28.6363C176.638 29.4749 177.283 30.1328 178.128 30.1328C178.973 30.1328 179.624 29.4684 179.624 28.6299V28.6234ZM178.554 28.9072L178.999 29.591H178.741L178.328 28.9524C178.289 28.9524 178.257 28.9524 178.218 28.9524H177.728V29.5846H177.483V27.6688H178.218C178.689 27.6688 178.973 27.9139 178.973 28.3009C178.973 28.5976 178.818 28.804 178.547 28.9008L178.554 28.9072ZM178.734 28.3138C178.734 28.0429 178.541 27.8881 178.205 27.8881H177.722V28.7524H178.205C178.541 28.7524 178.734 28.5912 178.734 28.3138Z" fill="#606060"/>
<defs>
<linearGradient id="paint0_linear_214_4308" x1="0.197732" y1="25.9529" x2="52.1177" y2="25.9529" gradientUnits="userSpaceOnUse">
<stop stop-color="#0131B9"/>
<stop offset="1" stop-color="#CC33FF"/>
</linearGradient>
</defs>
</svg>
