<svg width="15" height="14" viewBox="0 0 15 14" fill="none" xmlns="http://www.w3.org/2000/svg">
<path d="M12.1998 2.05025C10.8776 0.728134 9.11974 0 7.25 0C5.38016 0 3.62236 0.728134 2.30025 2.05025C0.978134 3.37236 0.25 5.13016 0.25 7C0.25 8.86974 0.978134 10.6276 2.30025 11.9498C3.62236 13.2719 5.38016 14 7.25 14C9.11974 14 10.8776 13.2719 12.1998 11.9498C13.5219 10.6276 14.25 8.86974 14.25 7C14.25 5.13016 13.5219 3.37236 12.1998 2.05025ZM3.75929 12.0965C4.05206 10.4108 5.51282 9.16742 7.25 9.16742C8.98729 9.16742 10.4479 10.4108 10.7407 12.0965C9.74683 12.7794 8.54434 13.1797 7.25 13.1797C5.95566 13.1797 4.75317 12.7794 3.75929 12.0965ZM5.02426 6.12137C5.02426 4.894 6.02274 3.89563 7.25 3.89563C8.47726 3.89563 9.47574 4.8941 9.47574 6.12137C9.47574 7.34863 8.47726 8.34711 7.25 8.34711C6.02274 8.34711 5.02426 7.34863 5.02426 6.12137ZM11.4512 11.5275C11.2304 10.7428 10.792 10.0308 10.1774 9.47461C9.80034 9.13335 9.37117 8.86407 8.90974 8.67427C9.74373 8.13028 10.2962 7.18916 10.2962 6.12137C10.2962 4.44176 8.92961 3.07532 7.25 3.07532C5.57039 3.07532 4.20395 4.44176 4.20395 6.12137C4.20395 7.18916 4.75638 8.13028 5.59026 8.67427C5.12894 8.86407 4.69966 9.13324 4.32262 9.4745C3.70813 10.0307 3.26956 10.7427 3.04878 11.5274C1.83273 10.3981 1.07031 8.78653 1.07031 7C1.07031 3.5925 3.8425 0.820312 7.25 0.820312C10.6575 0.820312 13.4297 3.5925 13.4297 7C13.4297 8.78664 12.6673 10.3982 11.4512 11.5275Z" fill="white"/>
</svg>
