<svg width="19" height="19" viewBox="0 0 19 19" fill="none" xmlns="http://www.w3.org/2000/svg">
<circle cx="9.6123" cy="9.5686" r="9" fill="#FF427F"/>
<path d="M13.0655 6.90802L12.1826 5.99567C11.9865 5.79299 11.6675 5.79314 11.4716 5.99596L6.75152 10.881C6.60403 11.0334 6.49139 11.2221 6.4258 11.4268L6.4216 11.4399L6.01123 13.2932L7.80439 12.8695L7.81705 12.8652C8.01504 12.7975 8.19764 12.6811 8.3453 12.5286L13.0658 7.64306C13.1607 7.54485 13.2129 7.4143 13.2129 7.27547C13.2128 7.13667 13.1605 7.00617 13.0655 6.90802ZM6.75964 12.5195L6.92724 11.7625L7.49223 12.3464L6.75964 12.5195ZM8.00685 12.0557L7.20874 11.2309L11.1103 7.193L11.9084 8.01779L8.00685 12.0557ZM12.3061 7.60624L11.5079 6.78145L11.8273 6.45096L12.6254 7.27575L12.3061 7.60624Z" fill="white"/>
</svg>
