<svg width="11" height="11" viewBox="0 0 11 11" fill="none" xmlns="http://www.w3.org/2000/svg">
<circle cx="5.05078" cy="5.19165" r="4.75" stroke="white" stroke-width="0.5"/>
<path d="M2.89878 4.99616H6.80143L5.30704 3.57278C5.22879 3.49825 5.22576 3.37442 5.30029 3.29617C5.37473 3.21801 5.49856 3.21488 5.57691 3.28942L7.28356 4.91507C7.35741 4.98902 7.39819 5.08722 7.39819 5.19179C7.39819 5.29625 7.35741 5.39455 7.28013 5.47173L5.57681 7.09406C5.53896 7.13015 5.49044 7.14805 5.44193 7.14805C5.39028 7.14805 5.33864 7.12771 5.3002 7.08731C5.22566 7.00906 5.2287 6.88532 5.30695 6.81079L6.8076 5.38741H2.89878C2.7908 5.38741 2.70316 5.29977 2.70316 5.19179C2.70316 5.0838 2.7908 4.99616 2.89878 4.99616Z" fill="white"/>
</svg>
