<svg fill="none" height="28" viewBox="0 0 28 28" width="28" xmlns="http://www.w3.org/2000/svg">
    <path clip-rule="evenodd" d="M9.11167 2.33337H18.8895C22.4933 2.33337 24.5 4.41004 24.5 7.96837V20.02C24.5 23.6367 22.4933 25.6667 18.8895 25.6667H9.11167C5.565 25.6667 3.5 23.6367 3.5 20.02V7.96837C3.5 4.41004 5.565 2.33337 9.11167 2.33337ZM9.42667 7.77004V7.75837H12.9138C13.4167 7.75837 13.825 8.16671 13.825 8.66721C13.825 9.18171 13.4167 9.59004 12.9138 9.59004H9.42667C8.92383 9.59004 8.51667 9.18171 8.51667 8.68004C8.51667 8.17837 8.92383 7.77004 9.42667 7.77004ZM9.42667 14.8634H18.5733C19.075 14.8634 19.4833 14.455 19.4833 13.9534C19.4833 13.4517 19.075 13.0422 18.5733 13.0422H9.42667C8.92383 13.0422 8.51667 13.4517 8.51667 13.9534C8.51667 14.455 8.92383 14.8634 9.42667 14.8634ZM9.42667 20.195H18.5733C19.0388 20.1484 19.39 19.7505 19.39 19.285C19.39 18.8067 19.0388 18.41 18.5733 18.3634H9.42667C9.07667 18.3284 8.73833 18.4917 8.55167 18.795C8.365 19.0867 8.365 19.4717 8.55167 19.775C8.73833 20.0667 9.07667 20.2417 9.42667 20.195Z"
        fill="url(#paint0_linear_102_3878)"
        fill-rule="evenodd" />
    <defs>
        <linearGradient gradientUnits="userSpaceOnUse" id="paint0_linear_102_3878" x1="-2.42736" x2="36.01"
            y1="22.5529" y2="14.4139">
            <stop stop-color="#0131B9" />
            <stop offset="1" stop-color="#CC33FF" />
        </linearGradient>
    </defs>
</svg>
