<svg fill="none" height="180" viewBox="0 0 186 180" width="186" xmlns="http://www.w3.org/2000/svg">
    <circle cx="95.5002" cy="90.5" fill="url(#paint0_linear_368_3958)" r="70.5" />
    <circle cx="178.467" cy="27.5" fill="#0131B9" r="7.5" />
    <circle cx="20.0334" cy="10" fill="#0131B9" r="10" />
    <circle cx="10.0334" cy="133" fill="#0131B9" r="5" />
    <circle cx="165.533" cy="160.5" fill="#0131B9" r="2.5" />
    <path clip-rule="evenodd" d="M84.8559 65.9165H106.17C114.503 65.9165 120.084 71.7673 120.084 80.4698V100.557C120.084 109.232 114.503 115.083 106.17 115.083H84.8559C76.5222 115.083 70.9172 109.232 70.9172 100.557V80.4698C70.9172 71.7673 76.5222 65.9165 84.8559 65.9165ZM94.0992 97.8502L105.776 86.1732C106.612 85.3373 106.612 83.9852 105.776 83.1248C104.94 82.289 103.564 82.289 102.728 83.1248L92.5751 93.2777L88.273 88.9757C87.4372 88.1398 86.0605 88.1398 85.2247 88.9757C84.3888 89.8115 84.3888 91.1636 85.2247 92.024L91.0755 97.8502C91.4934 98.2682 92.0342 98.4648 92.5751 98.4648C93.1405 98.4648 93.6813 98.2682 94.0992 97.8502Z"
        fill="white"
        fill-rule="evenodd" />
    <circle cx="106.533" cy="4.5" fill="#0131B9" r="2.5" />
    <circle cx="62.5334" cy="176.5" fill="#0131B9" r="3.5" />
    <circle cx="122.033" cy="171" fill="#0131B9" r="1" />
    <circle cx="170.533" cy="110.5" fill="#0131B9" r="2.5" />
    <circle cx="1.03345" cy="75" fill="#0131B9" r="1" />
    <defs>
        <linearGradient gradientUnits="userSpaceOnUse" id="paint0_linear_368_3958" x1="-14.7977" x2="240.71"
            y1="142.184" y2="82.069">
            <stop stop-color="#0131B9" />
            <stop offset="1" stop-color="#CC33FF" />
        </linearGradient>
    </defs>
</svg>
