<svg fill="none" height="180" viewBox="0 0 186 180" width="186" xmlns="http://www.w3.org/2000/svg">
    <circle cx="95.5002" cy="90.5" fill="url(#paint0_linear_233_1183)" r="70.5" />
    <circle cx="178.467" cy="27.5" fill="#76D39D" r="7.5" />
    <circle cx="20.0334" cy="10" fill="#76D39D" r="10" />
    <circle cx="10.0334" cy="133" fill="#76D39D" r="5" />
    <circle cx="165.533" cy="160.5" fill="#76D39D" r="2.5" />
    <path clip-rule="evenodd"
        d="M84.856 65.9164H106.17C114.503 65.9164 120.084 71.7672 120.084 80.4697V100.557C120.084 109.232 114.503 115.083 106.17 115.083H84.856C76.5222 115.083 70.9172 109.232 70.9172 100.557V80.4697C70.9172 71.7672 76.5222 65.9164 84.856 65.9164ZM94.0993 97.8501L105.776 86.173C106.612 85.3372 106.612 83.9851 105.776 83.1247C104.941 82.2889 103.564 82.2889 102.728 83.1247L92.5751 93.2776L88.2731 88.9755C87.4372 88.1397 86.0606 88.1397 85.2247 88.9755C84.3889 89.8114 84.3889 91.1635 85.2247 92.0239L91.0756 97.8501C91.4935 98.268 92.0343 98.4647 92.5751 98.4647C93.1406 98.4647 93.6814 98.268 94.0993 97.8501Z"
        fill="white" fill-rule="evenodd" />
    <circle cx="106.533" cy="4.5" fill="#76D39D" r="2.5" />
    <circle cx="62.5334" cy="176.5" fill="#76D39D" r="3.5" />
    <circle cx="122.033" cy="171" fill="#76D39D" r="1" />
    <circle cx="170.533" cy="110.5" fill="#76D39D" r="2.5" />
    <circle cx="1.03345" cy="75" fill="#76D39D" r="1" />
    <defs>
        <linearGradient gradientUnits="userSpaceOnUse" id="paint0_linear_233_1183" x1="-14.7977"
            x2="240.71" y1="142.184" y2="82.069">
            <stop stop-color="#0131B9" />
            <stop offset="1" stop-color="#CC33FF" />
        </linearGradient>
    </defs>
</svg>
