<svg fill="none" height="28" viewBox="0 0 28 28" width="28" xmlns="http://www.w3.org/2000/svg">
    <path clip-rule="evenodd" d="M5.29659 2.33333H9.23992C10.8849 2.33333 12.2033 3.675 12.2033 5.32117V9.29833C12.2033 10.955 10.8849 12.285 9.23992 12.285H5.29659C3.66325 12.285 2.33325 10.955 2.33325 9.29833V5.32117C2.33325 3.675 3.66325 2.33333 5.29659 2.33333ZM5.29659 15.7147H9.23992C10.8849 15.7147 12.2033 17.0458 12.2033 18.7025V22.6797C12.2033 24.3247 10.8849 25.6663 9.23992 25.6663H5.29659C3.66325 25.6663 2.33325 24.3247 2.33325 22.6797V18.7025C2.33325 17.0458 3.66325 15.7147 5.29659 15.7147ZM22.7034 2.33333H18.76C17.115 2.33333 15.7967 3.675 15.7967 5.32117V9.29833C15.7967 10.955 17.115 12.285 18.76 12.285H22.7034C24.3367 12.285 25.6667 10.955 25.6667 9.29833V5.32117C25.6667 3.675 24.3367 2.33333 22.7034 2.33333ZM18.76 15.7147H22.7034C24.3367 15.7147 25.6667 17.0458 25.6667 18.7025V22.6797C25.6667 24.3247 24.3367 25.6663 22.7034 25.6663H18.76C17.115 25.6663 15.7967 24.3247 15.7967 22.6797V18.7025C15.7967 17.0458 17.115 15.7147 18.76 15.7147Z"
        fill="url(#paint0_linear_28_1913)"
        fill-rule="evenodd" />
    <defs>
        <linearGradient gradientUnits="userSpaceOnUse" id="paint0_linear_28_1913" x1="-4.25273" x2="38.03"
            y1="22.5526" y2="12.6043">
            <stop stop-color="#0131B9" />
            <stop offset="1" stop-color="#CC33FF" />
        </linearGradient>
    </defs>
</svg>
