<svg width="15" height="14" viewBox="0 0 15 14" fill="none" xmlns="http://www.w3.org/2000/svg">
<path d="M7.9393 14H7.06067C6.35003 14 5.77185 13.4218 5.77185 12.7112V12.414C5.46973 12.3174 5.17619 12.1956 4.8942 12.0497L4.68354 12.2603C4.17333 12.7711 3.35605 12.7562 2.86067 12.2601L2.23966 11.6391C1.7434 11.1434 1.72913 10.3264 2.23983 9.81627L2.45032 9.60578C2.30439 9.32378 2.18257 9.0303 2.08602 8.72813H1.78879C1.07818 8.72813 0.5 8.14997 0.5 7.43933V6.56067C0.5 5.85003 1.07818 5.27187 1.78882 5.27187H2.08605C2.1826 4.96973 2.30441 4.67622 2.45035 4.39422L2.23969 4.18359C1.72929 3.67374 1.74338 2.85666 2.23986 2.36072L2.86091 1.73969C3.35745 1.24247 4.17454 1.23006 4.68376 1.73986L4.89422 1.95032C5.17622 1.80441 5.46975 1.68257 5.77187 1.58602V1.28879C5.77187 0.578156 6.35003 0 7.0607 0H7.93933C8.64997 0 9.22813 0.578156 9.22813 1.28879V1.58605C9.53025 1.68257 9.82378 1.80441 10.1058 1.95035L10.3164 1.73969C10.8266 1.22886 11.6439 1.24384 12.1393 1.73988L12.7603 2.36086C13.2566 2.85657 13.2708 3.67358 12.7601 4.18373L12.5497 4.39422C12.6956 4.67622 12.8174 4.9697 12.914 5.27187H13.2112C13.9218 5.27187 14.5 5.85003 14.5 6.56067V7.43933C14.5 8.14997 13.9218 8.72813 13.2112 8.72813H12.914C12.8174 9.03027 12.6956 9.32378 12.5497 9.60578L12.7603 9.81643C13.2707 10.3263 13.2566 11.1434 12.7601 11.6393L12.1391 12.2603C11.6426 12.7576 10.8255 12.77 10.3162 12.2602L10.1058 12.0497C9.82378 12.1956 9.53025 12.3175 9.22813 12.414V12.7113C9.22813 13.4218 8.64997 14 7.9393 14ZM5.03132 11.1882C5.42308 11.4199 5.84472 11.595 6.28452 11.7085C6.46564 11.7552 6.59219 11.9185 6.59219 12.1056V12.7112C6.59219 12.9695 6.80238 13.1797 7.0607 13.1797H7.93933C8.19765 13.1797 8.40784 12.9695 8.40784 12.7112V12.1056C8.40784 11.9185 8.53439 11.7552 8.71551 11.7085C9.15531 11.595 9.57695 11.4199 9.9687 11.1882C10.1299 11.0929 10.3351 11.1188 10.4675 11.2513L10.8965 11.6803C11.0815 11.8654 11.3785 11.8611 11.5589 11.6805L12.1803 11.059C12.3603 10.8793 12.3663 10.5822 12.1805 10.3966L11.7513 9.96748C11.6189 9.83508 11.593 9.62984 11.6883 9.46868C11.92 9.07695 12.095 8.65531 12.2085 8.21548C12.2552 8.03436 12.4186 7.90784 12.6056 7.90784H13.2112C13.4695 7.90784 13.6797 7.69768 13.6797 7.43936V6.5607C13.6797 6.30238 13.4695 6.09221 13.2112 6.09221H12.6056C12.4186 6.09221 12.2552 5.96567 12.2085 5.78457C12.095 5.34475 11.92 4.92311 11.6883 4.53138C11.593 4.37021 11.6189 4.16497 11.7513 4.03257L12.1803 3.60358C12.3658 3.41835 12.3609 3.1214 12.1805 2.94118L11.5591 2.31979C11.379 2.13943 11.0819 2.13415 10.8967 2.31962L10.4676 2.74879C10.3352 2.88121 10.1299 2.90713 9.96873 2.81181C9.57698 2.58013 9.15534 2.4051 8.71554 2.2916C8.53441 2.24487 8.40787 2.08152 8.40787 1.89446V1.28879C8.40787 1.03048 8.19768 0.820312 7.93936 0.820312H7.06072C6.80241 0.820312 6.59221 1.03048 6.59221 1.28879V1.8944C6.59221 2.08146 6.46567 2.24481 6.28454 2.29154C5.84475 2.40505 5.42311 2.58007 5.03135 2.81176C4.87013 2.90705 4.66492 2.88113 4.53252 2.74873L4.10355 2.31973C3.9186 2.13456 3.62156 2.13886 3.44118 2.31954L2.81973 2.94096C2.63976 3.12071 2.63374 3.41775 2.81957 3.60336L3.24873 4.03252C3.38113 4.16492 3.40705 4.37016 3.31176 4.53132C3.08007 4.92305 2.90507 5.34469 2.79157 5.78452C2.74481 5.96564 2.58146 6.09216 2.39443 6.09216H1.78882C1.5305 6.09219 1.32031 6.30235 1.32031 6.56067V7.43933C1.32031 7.69765 1.5305 7.90781 1.78882 7.90781H2.3944C2.58146 7.90781 2.74479 8.03436 2.79154 8.21546C2.90505 8.65528 3.08007 9.07692 3.31173 9.46865C3.40702 9.62981 3.3811 9.83505 3.2487 9.96745L2.81971 10.3965C2.63426 10.5817 2.6391 10.8786 2.81954 11.0589L3.44093 11.6802C3.62104 11.8606 3.91811 11.8659 4.10333 11.6804L4.53246 11.2512C4.63003 11.1537 4.833 11.0709 5.03132 11.1882Z" fill="white"/>
<path d="M7.49971 10.046C5.82006 10.046 4.45361 8.67957 4.45361 6.99995C4.45361 5.32033 5.82006 3.95386 7.49971 3.95386C9.17935 3.95386 10.5458 5.32033 10.5458 6.99995C10.5458 8.67957 9.17935 10.046 7.49971 10.046ZM7.49971 4.77417C6.27238 4.77417 5.27393 5.77265 5.27393 6.99995C5.27393 8.22725 6.27241 9.22573 7.49971 9.22573C8.727 9.22573 9.72549 8.22725 9.72549 6.99995C9.72549 5.77265 8.72703 4.77417 7.49971 4.77417Z" fill="white"/>
</svg>
